<svg width="396" height="621" viewBox="0 0 396 621" fill="none" xmlns="http://www.w3.org/2000/svg">
<path d="M61 333.5V360.5H91V389H120.5V475.5H213.5V86.5H181V446H154V360.5H120.5V333.5H61Z" fill="#252634"/>
<path d="M32.5 360.5V389H61V360.5H32.5Z" fill="#252634"/>
<path fill-rule="evenodd" clip-rule="evenodd" d="M213.5 86.5H181V27.5H335V86.5H305.5V113.5H335V504H305.5V534H274V562H120.5V534H91V504H64V475.5H32.5V389H61V360.5H91V389H120.5V475.5H213.5V86.5Z" fill="#F4F3E2"/>
<path d="M366 0H151.5V86.5H181V27.5H335V86.5H305.5V113.5H335V504H305.5V534H274V562H120.5V534H91V504H64V475.5H32.5V389H0V504H29.5V534H61V562H90V594.5H306.5V564H336V534H366V0Z" fill="#252634"/>
<path d="M307.5 504.5V477H276.5V504.5H307.5Z" fill="#93928F"/>
<path d="M247 504V534.5H275L274.5 504H247Z" fill="#BEBFB7"/>
<path d="M307.5 58H277.5L276.5 477.5H307.5V58Z" fill="#C3C0B6"/>
<path d="M276.5 504V477.5H247V504H276.5Z" fill="#C3C0B6"/>
<path d="M247 534V504H91V534H247Z" fill="#C3C0B6"/>
<path d="M310 58V55.5H307.5H277.5H275.006L275 57.994L274.006 475H247H244.5V477.5V501.5H91H88.5V504V534V536.5H91H247H249.5V534V506.5H276.5H279V504V480H307.5H310V477.5V58Z" stroke="#C3C0B6" stroke-opacity="0.1" stroke-width="5"/>
<path d="M91 534V504H180V534H91Z" fill="url(#paint0_linear_1_8)"/>
<path d="M307.087 504.057H335V113H307.087V504.057Z" fill="#747679"/>
<path d="M274.628 534.028H119.128V562H274.628V534.028Z" fill="#747679"/>
<path d="M307.087 504.057H274.628V534.028H307.087V504.057Z" fill="#747679"/>
<path d="M307.087 58V86.9713H335L335 58H307.087Z" fill="#747679"/>
<path d="M335 506.557H337.5V504.057V113V110.5H335H307.087H304.587V113V501.557H274.628H272.128V504.057V531.528H119.128H116.628V534.028V562V564.5H119.128H274.628H277.128V562V536.528H307.087H309.587V534.028V506.557H335ZM307.087 55.5H304.587V58V86.9713V89.4713H307.087H335H337.5V86.9713L337.5 58V55.5H335H307.087Z" stroke="#747679" stroke-opacity="0.1" stroke-width="5"/>
<path d="M181 56H213V86H181V56Z" fill="#DEDFD2" fill-opacity="0.5"/>
<path d="M61 360H91V390H61V360Z" fill="#DEDFD2" fill-opacity="0.5"/>
<path d="M121 620.5L90 594.5H306.5V564H336V534H366V28H395.5V561H366V591.5H334V620.5H121Z" fill="#9B9695"/>
<path d="M154 392H181V419H154V392Z" fill="#989A9B"/>
<path d="M154 419H181V446H154V419Z" fill="#616369"/>
<defs>
<linearGradient id="paint0_linear_1_8" x1="91" y1="519" x2="180" y2="519" gradientUnits="userSpaceOnUse">
<stop stop-color="#F0F1E1"/>
<stop offset="1" stop-color="#C3C0B6"/>
</linearGradient>
</defs>
</svg>
